<svg id="OBJECTS" xmlns="http://www.w3.org/2000/svg" xmlns:xlink="http://www.w3.org/1999/xlink" viewBox="0 0 500 500"><defs><style>.cls-1,.cls-2{fill:#a9001d;}.cls-1,.cls-3{opacity:0.1;isolation:isolate;}.cls-4{fill:#ffd037;}.cls-5{fill:#65617d;}.cls-6{fill:#9d9cb5;}</style></defs><title>2965739</title><path id="Path_418" data-name="Path 418" class="cls-1" d="M296.3,107.1c-18.82,16-43.24,14.94-64.61,6.63s-41.07-23.1-61.91-33.61a174.1,174.1,0,0,0-54.39-17.18c-26.57-3.68-56.24.81-74.75,26.62-20.62,28.75-19,80.59,3.27,107,11.34,13.42,26.16,20,39.14,30.49s24.94,27.88,23.84,48.11a57.54,57.54,0,0,1-25.18,42.13c-9.5,7-21.19,14.58-22.35,29-1.09,14,8.72,24.9,18.12,31.13a87.32,87.32,0,0,0,98.88-.52c10.9-7.35,20.9-17.13,32.32-22.89,30-15,63,.1,94.75,5.64A157.76,157.76,0,0,0,384,352.58a83.26,83.26,0,0,0,42.51-30.25,156.81,156.81,0,0,0,17.58-40.61q7.45-23.09,14.33-46.51a137.12,137.12,0,0,0,6.16-29,103.83,103.83,0,0,0-11.51-51.47c-17.51-36.44-47-62-79-68.55s-65.81,6.2-90.61,34"/><image width="712" height="673" transform="translate(104.07 154.72) scale(0.45)" xlink:href="undraw_team_spirit_hrr4%20(1).png"/><ellipse class="cls-1" cx="175.18" cy="411.38" rx="37.66" ry="9.18"/><ellipse class="cls-1" cx="245.4" cy="429.44" rx="36.55" ry="8.88"/><ellipse class="cls-1" cx="320.51" cy="452.85" rx="51.11" ry="12.06"/><path id="Path_451" data-name="Path 451" class="cls-2" d="M422.22,389.12s3.24,4.27-1.51,10.68-8.66,11.86-7.1,15.87c0,0,7.18-11.95,13-12.12S428.65,396.31,422.22,389.12Z"/><path id="Path_452" data-name="Path 452" class="cls-3" d="M422.22,389.12a5.42,5.42,0,0,1,.67,1.34c5.7,6.7,8.74,13,3.25,13.12-5.13.14-11.24,9.28-12.71,11.58a4.26,4.26,0,0,0,.17.54s7.19-11.95,13-12.11S428.65,396.31,422.22,389.12Z"/><path id="Path_453" data-name="Path 453" class="cls-4" d="M428.28,394.55c0,1.5-.17,2.7-.37,2.7s-.38-1.21-.38-2.7.21-.79.43-.79S428.28,393.05,428.28,394.55Z"/><path id="Path_454" data-name="Path 454" class="cls-4" d="M430.35,396.34c-1.31.72-2.46,1.15-2.56,1s.89-.91,2.21-1.62.79-.2.89,0S431.67,395.63,430.35,396.34Z"/><path id="Path_455" data-name="Path 455" class="cls-2" d="M405,389.12s-3.25,4.27,1.5,10.68,8.69,11.86,7.11,15.87c0,0-7.19-11.95-13-12.12S398.57,396.31,405,389.12Z"/><path id="Path_456" data-name="Path 456" class="cls-3" d="M405,389.12a5.1,5.1,0,0,0-.67,1.34c-5.7,6.7-8.74,13-3.24,13.12,5.12.14,11.24,9.28,12.7,11.58-.05.18-.11.35-.17.54,0,0-7.19-11.95-13-12.11S398.57,396.31,405,389.12Z"/><ellipse id="Ellipse_67" data-name="Ellipse 67" class="cls-1" cx="413.61" cy="443.05" rx="34.06" ry="5.22"/><path id="Path_459" data-name="Path 459" class="cls-5" d="M431.14,410l-.16,1.32-.23,1.88-.1.79-.22,1.88-.11.78-.22,1.88-2.61,21.35c-.23,1.91-3.35,3.42-7.11,3.42H406.84c-3.76,0-6.87-1.48-7.1-3.42l-2.61-21.35-.24-1.88-.09-.78-.23-1.88-.1-.79-.23-1.88-.16-1.32c-.13-1.08,1.56-2,3.68-2h27.71C429.59,408,431.27,408.87,431.14,410Z"/><path id="Path_460" data-name="Path 460" class="cls-6" d="M431,411.27l-.23,1.88H396.46l-.23-1.88Z"/><path id="Path_461" data-name="Path 461" class="cls-6" d="M430.66,413.94l-.24,1.88H396.79l-.23-1.88Z"/><path id="Path_462" data-name="Path 462" class="cls-6" d="M430.35,416.6l-.23,1.88h-33l-.23-1.88Z"/></svg>