<?xml version="1.0" encoding="utf-8"?>
<!-- Generator: Adobe Illustrator 23.0.3, SVG Export Plug-In . SVG Version: 6.00 Build 0)  -->
<svg version="1.1" id="Capa_1" xmlns="http://www.w3.org/2000/svg" xmlns:xlink="http://www.w3.org/1999/xlink" x="0px" y="0px"
	 viewBox="0 0 512 512" style="enable-background:new 0 0 512 512;" xml:space="preserve">
<style type="text/css">
	.st0{fill:#FFFFFF;}
</style>
<g>
	<path class="st0" d="M256,0C114.8,0,0,114.8,0,256s114.8,256,256,256s256-114.8,256-256S397.2,0,256,0z M256,482
		C131.4,482,30,380.6,30,256S131.4,30,256,30s226,101.4,226,226S380.6,482,256,482z"/>
	<path class="st0" d="M256,270c57.9,0,105-47.1,105-105S313.9,60,256,60s-105,47.1-105,105S198.1,270,256,270z M256,90
		c41.4,0,75,33.6,75,75s-33.6,75-75,75s-75-33.6-75-75S214.6,90,256,90z"/>
	<path class="st0" d="M424.6,335.4C404.7,312.9,376,300,346,300H166c-30,0-58.7,12.9-78.6,35.4l-7.1,8l5.3,9.3
		C120.4,414,185.7,452,256,452s135.6-38,170.5-99.2l5.3-9.3L424.6,335.4z M256,422c-55.7,0-107.8-28.2-138.4-74.3
		c13.5-11.4,30.6-17.7,48.4-17.7h180c17.8,0,34.9,6.4,48.4,17.7C363.8,393.8,311.7,422,256,422L256,422z"/>
</g>
</svg>
